<svg viewBox="0 0 900 600" width="100%" xmlns="http://www.w3.org/2000/svg"
    xmlns:xlink="http://www.w3.org/1999/xlink" version="1.1">
    <!-- <rect x="0" y="0" width="900" height="600" fill="#001220"></rect> -->
    <path
        d="M0 424L21.5 424.8C43 425.7 86 427.3 128.8 423.2C171.7 419 214.3 409 257.2 400.2C300 391.3 343 383.7 385.8 385.3C428.7 387 471.3 398 514.2 401C557 404 600 399 642.8 390.2C685.7 381.3 728.3 368.7 771.2 369.7C814 370.7 857 385.3 878.5 392.7L900 400L900 601L878.5 601C857 601 814 601 771.2 601C728.3 601 685.7 601 642.8 601C600 601 557 601 514.2 601C471.3 601 428.7 601 385.8 601C343 601 300 601 257.2 601C214.3 601 171.7 601 128.8 601C86 601 43 601 21.5 601L0 601Z"
        fill="#cfcdcd"></path>
    <path
        d="M0 411L21.5 412.7C43 414.3 86 417.7 128.8 428.5C171.7 439.3 214.3 457.7 257.2 460C300 462.3 343 448.7 385.8 448.7C428.7 448.7 471.3 462.3 514.2 457.8C557 453.3 600 430.7 642.8 420.3C685.7 410 728.3 412 771.2 412.5C814 413 857 412 878.5 411.5L900 411L900 601L878.5 601C857 601 814 601 771.2 601C728.3 601 685.7 601 642.8 601C600 601 557 601 514.2 601C471.3 601 428.7 601 385.8 601C343 601 300 601 257.2 601C214.3 601 171.7 601 128.8 601C86 601 43 601 21.5 601L0 601Z"
        fill="#a0969a"></path>
    <path
        d="M0 438L21.5 449.8C43 461.7 86 485.3 128.8 489.2C171.7 493 214.3 477 257.2 477.2C300 477.3 343 493.7 385.8 493.8C428.7 494 471.3 478 514.2 465.8C557 453.7 600 445.3 642.8 446.2C685.7 447 728.3 457 771.2 461C814 465 857 463 878.5 462L900 461L900 601L878.5 601C857 601 814 601 771.2 601C728.3 601 685.7 601 642.8 601C600 601 557 601 514.2 601C471.3 601 428.7 601 385.8 601C343 601 300 601 257.2 601C214.3 601 171.7 601 128.8 601C86 601 43 601 21.5 601L0 601Z"
        fill="#6e646e"></path>
    <path
        d="M0 494L21.5 495.3C43 496.7 86 499.3 128.8 502.5C171.7 505.7 214.3 509.3 257.2 509.2C300 509 343 505 385.8 502.8C428.7 500.7 471.3 500.3 514.2 497.7C557 495 600 490 642.8 496.8C685.7 503.7 728.3 522.3 771.2 522.5C814 522.7 857 504.3 878.5 495.2L900 486L900 601L878.5 601C857 601 814 601 771.2 601C728.3 601 685.7 601 642.8 601C600 601 557 601 514.2 601C471.3 601 428.7 601 385.8 601C343 601 300 601 257.2 601C214.3 601 171.7 601 128.8 601C86 601 43 601 21.5 601L0 601Z"
        fill="#3a3847"></path>
    <path
        d="M0 559L21.5 558.8C43 558.7 86 558.3 128.8 555.8C171.7 553.3 214.3 548.7 257.2 551.3C300 554 343 564 385.8 564.8C428.7 565.7 471.3 557.3 514.2 550.8C557 544.3 600 539.7 642.8 537.8C685.7 536 728.3 537 771.2 540C814 543 857 548 878.5 550.5L900 553L900 601L878.5 601C857 601 814 601 771.2 601C728.3 601 685.7 601 642.8 601C600 601 557 601 514.2 601C471.3 601 428.7 601 385.8 601C343 601 300 601 257.2 601C214.3 601 171.7 601 128.8 601C86 601 43 601 21.5 601L0 601Z"
        fill="#001122"></path>
</svg>